<?xml version="1.0" encoding="UTF-8" standalone="no"?><!DOCTYPE svg PUBLIC "-//W3C//DTD SVG 1.1//EN" "http://www.w3.org/Graphics/SVG/1.1/DTD/svg11.dtd"><svg width="100%" height="100%" viewBox="0 0 6000 6000" version="1.1" xmlns="http://www.w3.org/2000/svg" xmlns:xlink="http://www.w3.org/1999/xlink" xml:space="preserve" xmlns:serif="http://www.serif.com/" style="fill-rule:evenodd;clip-rule:evenodd;"><g><path d="M5375.696,1322.289l0,3355.421c0,385.228 -312.757,697.985 -697.985,697.985l-3355.421,0c-385.228,0 -697.985,-312.757 -697.985,-697.985l0,-3355.421c0,-385.228 312.757,-697.985 697.985,-697.985l3355.421,0c385.228,0 697.985,312.757 697.985,697.985Z" style="fill:url(#_Linear1);"/><path d="M2351.167,1963.303l-0,1655.093c405.739,-398.917 1063.7,-903.161 1938.452,-1103.67l0.471,-1.466l-360.222,-264.532l445.256,0l91.755,-285.424l91.679,0l91.755,285.424l3.138,0l0,531.372l-140.732,-103.348l-360.222,264.532l130.876,-407.125c-0.535,0.22 -1.069,0.439 -1.603,0.659l1.294,-1.511c-729.822,285.183 -1188.88,763.743 -1466.787,1173.882l398.999,-2.064c117.458,-403.572 414.445,-902.096 1066.495,-1170.307c-240.811,281.652 -368.378,655.456 -464.798,1001.381c-15.531,55.719 -27.571,109.909 -41.581,166.029l0,618.683l-1551.622,5.218l0,-2362.827l127.4,-0Z"/><path d="M1583.333,4328.283l0,-2828.283l767.833,0l0,2209.594l1424.222,-7.367l0,618.683l-2192.056,7.372Z" style="fill-rule:nonzero;"/><path d="M1955.578,4061.222c57.77,-74.834 147.655,-184.702 268.189,-312.679c39.236,-41.659 81.719,-85.236 127.4,-130.148m1938.452,-1103.67c5.304,-1.216 10.617,-2.421 15.937,-3.614" style="fill:none;fill-rule:nonzero;stroke:#000;stroke-width:38.89px;"/><path d="M3180.556,4316.667c-40.339,-56.838 -53.863,-307.189 34.718,-611.542m1066.495,-1170.307c0.534,-0.22 1.069,-0.439 1.603,-0.659c33.136,-13.599 67.188,-26.603 102.179,-38.971c-34.512,12.198 -68.45,24.826 -101.821,37.858c-0.223,0.087 -0.445,0.174 -0.668,0.261m-1466.787,1173.882c-167.407,247.061 -269.08,469.295 -324.608,609.478" style="fill:#fff;fill-opacity:0;fill-rule:nonzero;stroke:#000;stroke-width:5.56px;"/><path d="M3622.222,4280.556c39.888,-141.931 74.159,-348.623 131.441,-578.215c0.06,-0.242 0.121,-0.484 0.181,-0.725m529.218,-1168.308l0.934,-1.088c5.287,-6.156 10.622,-12.266 16.005,-18.33m-677.778,1766.667c39.93,-142.081 74.232,-349.059 131.622,-578.941" style="fill:none;fill-rule:nonzero;stroke:#000;stroke-width:38.89px;"/><path d="M4512.718,1820.709l137.594,428.018l445.256,0l-360.222,264.532l137.594,428.024l-360.222,-264.532l-360.222,264.532l137.594,-428.024l-360.222,-264.532l445.256,0l137.594,-428.018Z" style="fill-rule:nonzero;"/></g><defs><linearGradient id="_Linear1" x1="0" y1="0" x2="1" y2="0" gradientUnits="userSpaceOnUse" gradientTransform="matrix(2235.15133,3251.883626,-3251.883626,2235.15133,1576.601909,1394.595462)"><stop offset="0" style="stop-color:#7cdbff;stop-opacity:1"/><stop offset="1" style="stop-color:#6c8cff;stop-opacity:1"/></linearGradient></defs></svg>